<svg version="1.1" id="Layer_1" xmlns="http://www.w3.org/2000/svg" xmlns:xlink="http://www.w3.org/1999/xlink" x="0px" y="0px"
	 width="100%" viewBox="0 0 511 512" enable-background="new 0 0 511 512" xml:space="preserve" style="background: transparent;">
<path fill="#C5050A" opacity="1.000000" stroke="none" 
	d="
M251.437057,463.472656 
	C215.739792,477.249084 180.370453,490.817383 144.620453,504.531677 
	C100.673782,390.165924 56.868805,276.168945 12.830600,161.565002 
	C132.674988,115.441879 252.472855,69.336655 372.502167,23.142361 
	C416.427887,137.460037 460.238007,251.476868 504.246063,366.008820 
	C499.306580,367.998260 494.481110,370.017822 489.601196,371.895813 
	C410.805298,402.219849 332.002594,432.526031 253.199570,462.831451 
	C252.734634,463.010284 252.243744,463.121674 251.437057,463.472656 
M424.567871,359.822113 
	C425.045135,358.548584 425.935425,357.276215 425.938934,356.001404 
	C426.017822,327.256012 426.025909,298.510193 425.909302,269.765076 
	C425.904266,268.521851 424.582947,267.283936 422.953796,266.013214 
	C416.522064,266.013214 410.090332,266.013214 403.559204,266.013214 
	C403.373749,268.664948 403.227875,270.750061 403.076660,272.912170 
	C374.443878,261.813293 353.794312,265.351532 339.374756,283.685425 
	C326.833740,299.630829 325.970886,323.248077 337.393494,339.495544 
	C343.283051,347.872803 350.895905,354.112366 360.705170,357.330231 
	C375.361694,362.138153 389.402679,360.151276 403.050690,352.567017 
	C403.253845,355.189819 403.416229,357.286163 403.618988,359.903992 
	C410.503540,359.903992 417.118347,359.903992 424.567871,359.822113 
M305.531403,238.009109 
	C302.580078,238.009109 299.628754,238.009109 296.036133,238.009109 
	C296.036133,249.953522 296.036133,261.429199 296.036133,273.230286 
	C271.523712,259.780701 247.083679,266.449219 233.278015,282.449921 
	C220.002518,297.836151 218.499069,321.977570 230.006866,339.016052 
	C235.849197,347.666229 243.592331,354.035126 253.588226,357.320343 
	C268.250854,362.139374 282.297363,360.171173 295.953033,352.533875 
	C296.151794,355.141754 296.311188,357.233032 296.478638,359.430054 
	C303.421661,359.430054 310.109619,359.430054 316.705750,359.430054 
	C316.705750,318.796692 316.705750,278.552765 316.705750,238.009109 
	C313.116913,238.009109 309.813019,238.009109 305.531403,238.009109 
M120.889160,335.549316 
	C134.627213,359.355194 155.884003,364.842834 188.905014,352.965973 
	C189.106842,355.221466 189.303513,357.419128 189.487564,359.476013 
	C196.547012,359.476013 203.123398,359.476013 209.718918,359.476013 
	C209.718918,328.219788 209.718918,297.307465 209.718918,266.358337 
	C202.741547,266.358337 196.022156,266.358337 189.335510,266.358337 
	C189.181458,268.773438 189.049835,270.837128 188.879532,273.507355 
	C187.379639,272.624420 186.452362,271.987946 185.451645,271.503021 
	C169.736221,263.887817 153.883163,263.487823 138.674667,272.248627 
	C116.278542,285.149841 109.409676,309.751343 120.889160,335.549316 
z"/>
<path fill="#FEFCFC" opacity="1.000000" stroke="none" 
	d="
M306.020264,238.009109 
	C309.813019,238.009109 313.116913,238.009109 316.705750,238.009109 
	C316.705750,278.552765 316.705750,318.796692 316.705750,359.430054 
	C310.109619,359.430054 303.421661,359.430054 296.478638,359.430054 
	C296.311188,357.233032 296.151794,355.141754 295.953033,352.533875 
	C282.297363,360.171173 268.250854,362.139374 253.588226,357.320343 
	C243.592331,354.035126 235.849197,347.666229 230.006866,339.016052 
	C218.499069,321.977570 220.002518,297.836151 233.278015,282.449921 
	C247.083679,266.449219 271.523712,259.780701 296.036133,273.230286 
	C296.036133,261.429199 296.036133,249.953522 296.036133,238.009109 
	C299.628754,238.009109 302.580078,238.009109 306.020264,238.009109 
M259.415649,286.585419 
	C247.891281,291.813873 243.096024,300.809204 243.764633,315.944855 
	C244.558716,333.921021 259.366180,344.617584 276.892242,340.490265 
	C297.416382,335.656952 300.261230,308.476868 290.847229,295.153595 
	C284.122009,285.635620 273.941559,282.782593 259.415649,286.585419 
z"/>
<path fill="#FEFCFC" opacity="1.000000" stroke="none" 
	d="
M120.685364,335.235138 
	C109.409676,309.751343 116.278542,285.149841 138.674667,272.248627 
	C153.883163,263.487823 169.736221,263.887817 185.451645,271.503021 
	C186.452362,271.987946 187.379639,272.624420 188.879532,273.507355 
	C189.049835,270.837128 189.181458,268.773438 189.335510,266.358337 
	C196.022156,266.358337 202.741547,266.358337 209.718918,266.358337 
	C209.718918,297.307465 209.718918,328.219788 209.718918,359.476013 
	C203.123398,359.476013 196.547012,359.476013 189.487564,359.476013 
	C189.303513,357.419128 189.106842,355.221466 188.905014,352.965973 
	C155.884003,364.842834 134.627213,359.355194 120.685364,335.235138 
M175.504761,287.768250 
	C162.780319,281.863617 149.473724,284.550476 141.858810,294.614990 
	C136.594849,301.572296 136.039597,309.588440 136.852737,317.859711 
	C137.798660,327.481598 142.136658,335.134674 151.203842,338.925903 
	C160.584412,342.848206 169.947678,342.372406 178.626129,336.306732 
	C192.419952,326.665680 192.988373,297.488007 175.504761,287.768250 
z"/>
<path fill="#FEFCFC" opacity="1.000000" stroke="none" 
	d="
M423.733154,359.903992 
	C417.118347,359.903992 410.503540,359.903992 403.618988,359.903992 
	C403.416229,357.286163 403.253845,355.189819 403.050690,352.567017 
	C389.402679,360.151276 375.361694,362.138153 360.705170,357.330231 
	C350.895905,354.112366 343.283051,347.872803 337.393494,339.495544 
	C325.970886,323.248077 326.833740,299.630829 339.374756,283.685425 
	C353.794312,265.351532 374.443878,261.813293 403.076660,272.912170 
	C403.227875,270.750061 403.373749,268.664948 403.559204,266.013214 
	C410.090332,266.013214 416.522064,266.013214 423.472290,266.491058 
	C424.033661,282.128479 424.144226,297.288239 424.100800,312.447571 
	C424.055511,328.266602 423.861938,344.085205 423.733154,359.903992 
M360.503204,336.118500 
	C367.324371,341.434418 375.201447,342.248047 383.231537,340.591339 
	C396.425171,337.869354 403.837646,326.342316 403.022095,310.733276 
	C402.399841,298.823883 395.854279,289.321442 386.049683,286.093964 
	C375.055267,282.474762 363.426514,285.657257 356.533539,293.822510 
	C348.204987,303.688324 348.257660,326.858673 360.503204,336.118500 
z"/>
<path fill="#C50102" opacity="1.000000" stroke="none" 
	d="
M424.150513,359.863037 
	C423.861938,344.085205 424.055511,328.266602 424.100800,312.447571 
	C424.144226,297.288239 424.033661,282.128479 423.932770,266.506226 
	C424.582947,267.283936 425.904266,268.521851 425.909302,269.765076 
	C426.025909,298.510193 426.017822,327.256012 425.938934,356.001404 
	C425.935425,357.276215 425.045135,358.548584 424.150513,359.863037 
z"/>
<path fill="#C5060A" opacity="1.000000" stroke="none" 
	d="
M259.757416,286.376953 
	C273.941559,282.782593 284.122009,285.635620 290.847229,295.153595 
	C300.261230,308.476868 297.416382,335.656952 276.892242,340.490265 
	C259.366180,344.617584 244.558716,333.921021 243.764633,315.944855 
	C243.096024,300.809204 247.891281,291.813873 259.757416,286.376953 
z"/>
<path fill="#C5060B" opacity="1.000000" stroke="none" 
	d="
M175.847473,287.925720 
	C192.988373,297.488007 192.419952,326.665680 178.626129,336.306732 
	C169.947678,342.372406 160.584412,342.848206 151.203842,338.925903 
	C142.136658,335.134674 137.798660,327.481598 136.852737,317.859711 
	C136.039597,309.588440 136.594849,301.572296 141.858810,294.614990 
	C149.473724,284.550476 162.780319,281.863617 175.847473,287.925720 
z"/>
<path fill="#C5060A" opacity="1.000000" stroke="none" 
	d="
M360.213959,335.897675 
	C348.257660,326.858673 348.204987,303.688324 356.533539,293.822510 
	C363.426514,285.657257 375.055267,282.474762 386.049683,286.093964 
	C395.854279,289.321442 402.399841,298.823883 403.022095,310.733276 
	C403.837646,326.342316 396.425171,337.869354 383.231537,340.591339 
	C375.201447,342.248047 367.324371,341.434418 360.213959,335.897675 
z"/>
</svg>